<?xml version="1.0" encoding="UTF-8" standalone="no"?>
<!DOCTYPE svg PUBLIC "-//W3C//DTD SVG 1.1//EN"
 "http://www.w3.org/Graphics/SVG/1.1/DTD/svg11.dtd">
<!-- Generated by graphviz version 2.38.0 (20140413.2041)
 -->
<!-- Title: snakemake_dag Pages: 1 -->
<svg width="196pt" height="260pt"
 viewBox="0.00 0.00 195.70 260.00" xmlns="http://www.w3.org/2000/svg" xmlns:xlink="http://www.w3.org/1999/xlink">
<g id="graph0" class="graph" transform="scale(1 1) rotate(0) translate(4 256)">
<title>snakemake_dag</title>
<polygon fill="white" stroke="none" points="-4,4 -4,-256 191.698,-256 191.698,4 -4,4"/>
<!-- 0 -->
<g id="node1" class="node"><title>0</title>
<path fill="none" stroke="#56d88a" stroke-width="2" d="M65.1981,-36C65.1981,-36 35.1981,-36 35.1981,-36 29.1981,-36 23.1981,-30 23.1981,-24 23.1981,-24 23.1981,-12 23.1981,-12 23.1981,-6 29.1981,-0 35.1981,-0 35.1981,-0 65.1981,-0 65.1981,-0 71.1981,-0 77.1981,-6 77.1981,-12 77.1981,-12 77.1981,-24 77.1981,-24 77.1981,-30 71.1981,-36 65.1981,-36"/>
<text text-anchor="middle" x="50.1981" y="-15.5" font-family="sans" font-size="10.00">all</text>
</g>
<!-- 1 -->
<g id="node2" class="node"><title>1</title>
<path fill="none" stroke="#d8bc56" stroke-width="2" d="M79.6981,-108C79.6981,-108 20.6981,-108 20.6981,-108 14.6981,-108 8.69812,-102 8.69812,-96 8.69812,-96 8.69812,-84 8.69812,-84 8.69812,-78 14.6981,-72 20.6981,-72 20.6981,-72 79.6981,-72 79.6981,-72 85.6981,-72 91.6981,-78 91.6981,-84 91.6981,-84 91.6981,-96 91.6981,-96 91.6981,-102 85.6981,-108 79.6981,-108"/>
<text text-anchor="middle" x="50.1981" y="-93" font-family="sans" font-size="10.00">happy</text>
<text text-anchor="middle" x="50.1981" y="-82" font-family="sans" font-size="10.00">samples: test</text>
</g>
<!-- 1&#45;&gt;0 -->
<g id="edge1" class="edge"><title>1&#45;&gt;0</title>
<path fill="none" stroke="grey" stroke-width="2" d="M50.1981,-71.6966C50.1981,-63.9827 50.1981,-54.7125 50.1981,-46.1124"/>
<polygon fill="grey" stroke="grey" stroke-width="2" points="53.6982,-46.1043 50.1981,-36.1043 46.6982,-46.1044 53.6982,-46.1043"/>
</g>
<!-- 2 -->
<g id="node3" class="node"><title>2</title>
<path fill="none" stroke="#56c1d8" stroke-width="2" d="M74.6981,-180C74.6981,-180 25.6981,-180 25.6981,-180 19.6981,-180 13.6981,-174 13.6981,-168 13.6981,-168 13.6981,-156 13.6981,-156 13.6981,-150 19.6981,-144 25.6981,-144 25.6981,-144 74.6981,-144 74.6981,-144 80.6981,-144 86.6981,-150 86.6981,-156 86.6981,-156 86.6981,-168 86.6981,-168 86.6981,-174 80.6981,-180 74.6981,-180"/>
<text text-anchor="middle" x="50.1981" y="-159.5" font-family="sans" font-size="10.00">sdfCreation</text>
</g>
<!-- 2&#45;&gt;1 -->
<g id="edge2" class="edge"><title>2&#45;&gt;1</title>
<path fill="none" stroke="grey" stroke-width="2" d="M50.1981,-143.697C50.1981,-135.983 50.1981,-126.712 50.1981,-118.112"/>
<polygon fill="grey" stroke="grey" stroke-width="2" points="53.6982,-118.104 50.1981,-108.104 46.6982,-118.104 53.6982,-118.104"/>
</g>
<!-- 3 -->
<g id="node4" class="node"><title>3</title>
<path fill="none" stroke="#d85656" stroke-width="2" d="M175.698,-180C175.698,-180 116.698,-180 116.698,-180 110.698,-180 104.698,-174 104.698,-168 104.698,-168 104.698,-156 104.698,-156 104.698,-150 110.698,-144 116.698,-144 116.698,-144 175.698,-144 175.698,-144 181.698,-144 187.698,-150 187.698,-156 187.698,-156 187.698,-168 187.698,-168 187.698,-174 181.698,-180 175.698,-180"/>
<text text-anchor="middle" x="146.198" y="-159.5" font-family="sans" font-size="10.00">fastaIndexing</text>
</g>
<!-- 3&#45;&gt;1 -->
<g id="edge3" class="edge"><title>3&#45;&gt;1</title>
<path fill="none" stroke="grey" stroke-width="2" d="M122.468,-143.697C110.261,-134.796 95.2128,-123.823 82.0137,-114.199"/>
<polygon fill="grey" stroke="grey" stroke-width="2" points="83.7977,-111.168 73.6555,-108.104 79.6735,-116.824 83.7977,-111.168"/>
</g>
<!-- 4 -->
<g id="node5" class="node"><title>4</title>
<path fill="none" stroke="#88d856" stroke-width="2" d="M65.1981,-252C65.1981,-252 35.1981,-252 35.1981,-252 29.1981,-252 23.1981,-246 23.1981,-240 23.1981,-240 23.1981,-228 23.1981,-228 23.1981,-222 29.1981,-216 35.1981,-216 35.1981,-216 65.1981,-216 65.1981,-216 71.1981,-216 77.1981,-222 77.1981,-228 77.1981,-228 77.1981,-240 77.1981,-240 77.1981,-246 71.1981,-252 65.1981,-252"/>
<text text-anchor="middle" x="50.1981" y="-231.5" font-family="sans" font-size="10.00">unzip</text>
</g>
<!-- 4&#45;&gt;1 -->
<g id="edge4" class="edge"><title>4&#45;&gt;1</title>
<path fill="none" stroke="grey" stroke-width="2" d="M29.3754,-215.615C19.7401,-206.198 9.31301,-193.697 4.19812,-180 -1.39937,-165.011 -1.39937,-158.989 4.19812,-144 8.07425,-133.621 15.0011,-123.927 22.3221,-115.743"/>
<polygon fill="grey" stroke="grey" stroke-width="2" points="24.9821,-118.026 29.3754,-108.385 19.9287,-113.182 24.9821,-118.026"/>
</g>
<!-- 4&#45;&gt;2 -->
<g id="edge5" class="edge"><title>4&#45;&gt;2</title>
<path fill="none" stroke="grey" stroke-width="2" d="M50.1981,-215.697C50.1981,-207.983 50.1981,-198.712 50.1981,-190.112"/>
<polygon fill="grey" stroke="grey" stroke-width="2" points="53.6982,-190.104 50.1981,-180.104 46.6982,-190.104 53.6982,-190.104"/>
</g>
<!-- 4&#45;&gt;3 -->
<g id="edge6" class="edge"><title>4&#45;&gt;3</title>
<path fill="none" stroke="grey" stroke-width="2" d="M73.9285,-215.697C86.1351,-206.796 101.183,-195.823 114.383,-186.199"/>
<polygon fill="grey" stroke="grey" stroke-width="2" points="116.723,-188.824 122.741,-180.104 112.599,-183.168 116.723,-188.824"/>
</g>
</g>
</svg>
