<?xml version="1.0" encoding="UTF-8" standalone="no"?>
<!DOCTYPE svg PUBLIC "-//W3C//DTD SVG 20010904//EN"
              "http://www.w3.org/TR/2001/REC-SVG-20010904/DTD/svg10.dtd">

<svg xmlns="http://www.w3.org/2000/svg"
     width="8.58333in" height="9.56944in"
     viewBox="0 0 618 689">
  <path id="Selection #1"
        fill="black" stroke="black" stroke-width="1"
        d="M 323.00,0.21
           C 323.00,0.21 334.00,0.91 334.00,0.91
             357.87,2.55 381.26,7.09 404.00,14.67
             443.13,27.70 472.87,43.74 505.00,69.80
             561.16,115.37 599.76,181.96 612.58,253.00
             614.44,263.32 616.98,281.78 617.00,292.00
             617.00,292.00 618.00,312.00 618.00,312.00
             618.00,312.00 617.00,328.00 617.00,328.00
             616.91,344.76 611.23,374.65 606.57,391.00
             592.52,440.31 571.69,476.15 538.42,515.00
             514.50,542.93 479.86,567.82 447.00,584.25
             398.57,608.46 351.86,617.63 298.00,617.00
             298.00,617.00 288.00,615.96 288.00,615.96
             288.00,615.96 279.00,615.96 279.00,615.96
             259.37,613.95 239.94,609.83 221.00,604.42
             194.49,596.86 168.25,584.80 145.00,570.05
             97.39,539.85 58.09,497.57 32.81,447.00
             -8.20,364.99 -10.96,264.56 27.31,181.00
             59.64,110.41 119.66,51.39 192.00,22.45
             207.59,16.21 232.57,8.39 249.00,5.42
             249.00,5.42 278.00,1.17 278.00,1.17
             278.00,1.17 288.00,0.21 288.00,0.21
             288.00,0.21 323.00,0.21 323.00,0.21 Z
           M 273.00,16.28
           C 250.55,19.24 229.35,24.09 208.00,31.69
             138.87,56.31 76.59,111.83 44.78,178.00
             28.98,210.87 18.57,246.56 15.91,283.00
             15.91,283.00 15.00,295.00 15.00,295.00
             15.00,295.00 15.00,321.00 15.00,321.00
             15.00,321.00 17.87,350.00 17.87,350.00
             26.51,412.20 56.08,472.77 101.17,516.72
             132.21,546.96 161.13,565.56 201.00,582.01
             225.98,592.31 256.05,599.12 283.00,601.09
             283.00,601.09 293.00,602.00 293.00,602.00
             293.00,602.00 322.00,602.00 322.00,602.00
             322.00,602.00 334.00,601.09 334.00,601.09
             360.94,599.21 387.72,593.12 413.00,583.58
             493.14,553.32 557.58,487.68 586.31,407.00
             599.05,371.24 603.44,336.74 603.00,299.00
             603.00,299.00 602.09,289.00 602.09,289.00
             602.09,289.00 598.25,256.00 598.25,256.00
             577.30,135.55 480.69,38.84 360.00,18.59
             342.77,15.70 314.10,12.69 297.00,14.28
             297.00,14.28 273.00,16.28 273.00,16.28 Z
           M 481.00,512.00
           C 478.77,512.00 476.13,512.11 474.00,511.44
             474.00,511.44 454.00,501.25 454.00,501.25
             454.00,501.25 422.00,485.69 422.00,485.69
             422.00,485.69 393.00,470.55 393.00,470.55
             382.77,466.89 371.71,466.88 361.00,467.00
             345.33,467.19 320.94,471.98 305.00,474.75
             258.50,482.82 207.96,491.93 162.00,476.67
             142.20,470.09 106.60,456.40 105.09,432.00
             104.27,418.58 115.49,405.76 127.00,400.33
             127.00,400.33 143.00,395.26 143.00,395.26
             143.00,395.26 159.00,389.20 159.00,389.20
             196.55,374.14 232.44,349.14 263.00,322.87
             263.00,322.87 285.00,303.00 285.00,303.00
             286.80,301.22 292.20,296.21 292.80,294.04
             293.83,290.36 285.63,286.42 283.00,284.67
             283.00,284.67 249.00,259.88 249.00,259.88
             229.47,244.78 194.41,213.24 178.58,195.00
             165.49,179.92 155.76,169.24 156.00,148.00
             156.18,132.85 165.84,122.67 179.00,116.49
             192.47,110.16 211.18,106.58 226.00,105.04
             226.00,105.04 235.00,105.04 235.00,105.04
             235.00,105.04 245.00,104.00 245.00,104.00
             245.00,104.00 259.00,105.04 259.00,105.04
             259.00,105.04 268.00,105.04 268.00,105.04
             284.90,106.78 302.05,110.20 318.00,116.05
             336.74,122.93 363.50,137.71 381.00,147.99
             381.00,147.99 470.00,202.69 470.00,202.69
             470.00,202.69 496.00,219.67 496.00,219.67
             496.00,219.67 515.00,232.00 515.00,232.00
             515.00,232.00 506.00,247.00 506.00,247.00
             500.02,245.54 485.86,235.57 480.00,231.67
             480.00,231.67 434.00,202.05 434.00,202.05
             434.00,202.05 355.00,154.70 355.00,154.70
             339.95,146.43 321.25,136.20 305.00,131.03
             284.77,124.59 268.77,123.66 248.00,122.18
             248.00,122.18 218.00,124.59 218.00,124.59
             210.76,125.73 203.97,127.01 197.00,129.33
             190.91,131.36 182.74,134.41 178.34,139.18
             168.84,149.49 177.70,165.27 185.17,174.00
             202.87,194.71 229.91,219.67 251.00,237.25
             291.98,271.38 340.82,301.28 392.00,317.02
             408.72,322.17 432.61,327.97 450.00,328.00
             450.00,328.00 462.00,328.00 462.00,328.00
             462.00,328.00 493.00,325.00 493.00,325.00
             489.24,329.54 479.95,336.66 475.00,340.75
             475.00,340.75 438.00,369.42 438.00,369.42
             377.48,412.67 323.06,437.97 249.00,447.72
             249.00,447.72 203.00,452.09 203.00,452.09
             203.00,452.09 193.00,453.00 193.00,453.00
             193.00,453.00 170.00,453.00 170.00,453.00
             163.26,452.97 154.14,450.75 148.00,452.00
             159.16,455.01 164.03,459.23 183.00,463.34
             190.47,464.96 210.56,467.13 218.00,466.98
             218.00,466.98 230.00,466.00 230.00,466.00
             257.14,465.69 291.69,458.30 319.00,453.75
             329.35,452.03 347.99,449.02 358.00,449.00
             358.00,449.00 375.00,449.00 375.00,449.00
             395.23,449.03 407.07,456.03 424.00,465.58
             424.00,465.58 458.00,482.74 458.00,482.74
             458.00,482.74 476.00,491.58 476.00,491.58
             484.97,496.75 491.71,500.74 492.00,512.00
             492.00,512.00 481.00,512.00 481.00,512.00 Z
           M 355.00,238.24
           C 351.27,239.75 347.99,240.12 344.00,239.96
             327.15,239.28 316.62,221.25 323.56,206.00
             327.31,197.74 333.56,194.34 342.00,192.46
             370.91,188.73 379.16,228.42 355.00,238.24 Z
           M 421.00,343.39
           C 421.00,343.39 390.00,335.98 390.00,335.98
             373.61,330.90 357.59,324.85 342.00,317.69
             342.00,317.69 311.00,302.00 311.00,302.00
             303.76,311.57 282.81,330.07 273.00,338.42
             247.87,359.83 212.15,385.71 182.00,399.14
             167.01,405.82 156.94,410.22 141.00,414.86
             137.49,415.88 129.20,418.36 129.20,422.97
             129.20,426.67 136.09,429.29 139.00,430.25
             147.66,433.11 164.79,434.96 174.00,435.00
             221.97,435.23 284.35,427.27 329.00,409.55
             371.68,392.61 400.92,373.33 438.00,347.00
             433.42,344.34 426.31,344.34 421.00,343.39 Z
           M 469.00,617.00
           C 469.00,617.00 469.00,655.00 469.00,655.00
             477.21,646.61 477.92,641.05 490.00,641.00
             490.00,641.00 478.00,654.00 478.00,654.00
             482.61,658.13 489.26,667.40 492.00,673.00
             490.06,672.99 486.93,673.13 485.17,672.40
             481.30,670.81 476.83,662.74 475.00,659.00
             468.55,663.78 469.01,665.52 469.00,673.00
             469.00,673.00 462.00,673.00 462.00,673.00
             462.00,673.00 462.00,617.00 462.00,617.00
             462.00,617.00 469.00,617.00 469.00,617.00 Z
           M 356.00,666.31
           C 361.51,665.87 366.46,659.37 363.67,654.09
             360.05,647.22 347.83,647.13 346.37,636.00
             345.31,627.98 351.29,622.38 359.00,622.04
             361.09,621.95 364.55,621.80 365.98,623.60
             367.16,625.09 366.98,628.17 367.00,630.00
             363.06,628.98 355.10,626.33 354.32,633.04
             353.78,637.64 359.75,640.44 363.00,642.31
             368.42,645.42 371.59,648.45 371.96,655.00
             372.29,661.01 371.05,666.43 365.91,670.22
             361.83,673.10 349.51,674.96 345.99,670.22
             344.68,668.56 345.00,664.18 345.00,662.00
             348.24,663.94 352.03,666.63 356.00,666.31 Z
           M 121.00,623.00
           C 121.00,623.00 121.00,650.00 121.00,650.00
             121.00,650.00 134.00,650.00 134.00,650.00
             134.00,650.00 134.00,623.00 134.00,623.00
             134.00,623.00 141.00,623.00 141.00,623.00
             141.00,623.00 141.00,673.00 141.00,673.00
             141.00,673.00 134.00,673.00 134.00,673.00
             134.00,673.00 134.00,656.00 134.00,656.00
             134.00,656.00 121.00,656.00 121.00,656.00
             121.00,656.00 121.00,673.00 121.00,673.00
             121.00,673.00 114.00,673.00 114.00,673.00
             114.00,673.00 114.00,623.00 114.00,623.00
             114.00,623.00 121.00,623.00 121.00,623.00 Z
           M 167.00,640.04
           C 178.14,639.47 181.95,644.41 182.00,655.00
             182.00,655.00 182.00,673.00 182.00,673.00
             182.00,673.00 175.00,673.00 175.00,673.00
             175.00,673.00 174.00,668.00 174.00,668.00
             170.65,673.90 160.27,675.28 155.65,669.77
             151.13,664.39 153.32,656.96 160.02,654.80
             162.30,654.07 164.63,654.03 167.00,654.00
             167.00,654.00 175.00,654.00 175.00,654.00
             174.75,652.49 174.78,651.49 173.98,650.06
             168.44,640.08 161.09,653.63 156.00,644.00
             160.03,641.72 162.23,640.29 167.00,640.04 Z
           M 213.00,640.11
           C 231.33,641.68 231.15,671.57 213.00,672.90
             210.72,673.07 208.14,672.88 206.01,671.99
             203.13,670.79 201.94,669.29 200.00,667.00
             200.00,667.00 200.00,688.00 200.00,688.00
             200.00,688.00 193.00,688.00 193.00,688.00
             193.00,688.00 193.00,641.00 193.00,641.00
             193.00,641.00 200.00,641.00 200.00,641.00
             200.00,641.00 200.00,646.00 200.00,646.00
             204.34,641.92 206.70,639.57 213.00,640.11 Z
           M 251.00,640.57
           C 274.53,633.87 277.02,677.00 252.00,672.78
             248.27,672.15 246.01,670.04 243.00,668.00
             243.00,668.00 243.00,688.00 243.00,688.00
             243.00,688.00 236.00,688.00 236.00,688.00
             236.00,688.00 236.00,641.00 236.00,641.00
             236.00,641.00 243.00,641.00 243.00,641.00
             243.00,641.00 243.00,646.00 243.00,646.00
             245.57,643.61 247.50,641.57 251.00,640.57 Z
           M 412.43,646.02
           C 414.88,650.88 414.00,666.85 414.00,673.00
             414.00,673.00 407.00,673.00 407.00,673.00
             407.00,668.31 407.70,654.56 405.83,651.07
             402.60,645.00 395.59,645.36 392.31,651.07
             390.21,654.80 391.00,668.14 391.00,673.00
             391.00,673.00 384.00,673.00 384.00,673.00
             384.00,673.00 384.00,641.00 384.00,641.00
             384.00,641.00 391.00,641.00 391.00,641.00
             391.00,641.00 392.00,646.02 392.00,646.02
             397.08,637.55 408.56,638.40 412.43,646.02 Z
           M 432.00,640.80
           C 433.93,640.20 435.99,640.02 438.00,640.03
             455.73,640.09 452.00,660.97 452.00,673.00
             452.00,673.00 445.00,673.00 445.00,673.00
             445.00,673.00 445.00,668.00 445.00,668.00
             440.01,672.41 433.57,675.18 427.11,671.55
             421.39,668.33 421.44,658.65 428.02,655.31
             431.70,653.44 440.61,654.00 445.00,654.00
             443.83,651.11 443.06,648.05 439.89,646.74
             433.02,643.90 431.16,651.94 425.00,645.00
             427.44,643.06 428.94,641.76 432.00,640.80 Z
           M 515.00,672.99
           C 511.72,672.91 508.92,672.59 506.00,670.91
             503.88,669.69 502.08,668.01 500.70,665.98
             498.71,663.07 497.91,659.49 498.11,656.00
             499.12,637.86 522.58,634.87 529.56,648.00
             531.21,651.10 531.71,654.56 532.00,658.04
             532.00,658.04 515.00,658.04 515.00,658.04
             515.00,658.04 505.00,659.00 505.00,659.00
             507.29,662.92 509.14,665.95 514.00,666.77
             522.34,668.17 523.68,661.11 530.00,669.00
             523.33,672.50 522.71,673.17 515.00,672.99 Z
           M 283.30,641.99
           C 283.30,641.99 286.95,649.00 286.95,649.00
             286.95,649.00 293.00,663.00 293.00,663.00
             293.00,663.00 301.00,641.00 301.00,641.00
             301.00,641.00 309.00,641.00 309.00,641.00
             309.00,641.00 295.23,673.00 295.23,673.00
             295.23,673.00 288.93,686.43 288.93,686.43
             288.93,686.43 281.00,688.00 281.00,688.00
             281.00,688.00 288.23,670.00 288.23,670.00
             288.23,670.00 285.14,661.00 285.14,661.00
             285.14,661.00 276.00,641.00 276.00,641.00
             276.00,641.00 283.30,641.99 283.30,641.99 Z
           M 332.00,644.00
           C 332.00,644.00 332.00,650.00 332.00,650.00
             332.00,650.00 318.00,650.00 318.00,650.00
             318.00,650.00 318.00,645.00 318.00,645.00
             318.00,645.00 332.00,644.00 332.00,644.00 Z
           M 212.00,666.68
           C 221.74,664.35 222.34,645.24 208.00,646.41
             194.31,650.84 199.75,669.61 212.00,666.68 Z
           M 255.96,666.57
           C 264.97,664.03 265.42,645.23 251.00,646.41
             237.12,650.90 242.79,670.28 255.96,666.57 Z
           M 505.00,654.00
           C 505.00,654.00 524.00,654.00 524.00,654.00
             522.23,643.09 508.79,642.92 505.00,654.00 Z
           M 168.00,659.11
           C 166.91,659.02 165.14,659.02 164.11,659.11
             160.63,660.29 159.46,663.81 162.33,666.26
             165.70,669.14 172.41,667.87 174.26,663.79
             174.94,662.29 174.90,660.60 175.00,659.11
             175.00,659.11 168.00,659.11 168.00,659.11 Z
           M 438.00,659.08
           C 438.00,659.08 434.05,659.08 434.05,659.08
             429.30,660.16 429.59,664.30 431.60,666.26
             434.53,669.12 440.84,667.79 443.15,664.72
             444.45,662.99 444.66,661.05 445.00,659.08
             445.00,659.08 438.00,659.08 438.00,659.08 Z" />
</svg>
